Coordinates
version=1
nRows=17
nColumns=38
inDegrees=yes

Units are S.I. units (second, meters, Newtons, ...)
Angles are in degrees.

endheader
time	pelvis_tilt	pelvis_list	pelvis_rotation	pelvis_tx	pelvis_ty	pelvis_tz	hip_flexion_r	hip_adduction_r	hip_rotation_r	knee_angle_r	ankle_angle_r	subtalar_angle_r	mtp_angle_r	hip_flexion_l	hip_adduction_l	hip_rotation_l	knee_angle_l	ankle_angle_l	subtalar_angle_l	mtp_angle_l	lumbar_extension	lumbar_bending	lumbar_rotation	arm_flex_r	arm_add_r	arm_rot_r	elbow_flex_r	pro_sup_r	wrist_flex_r	wrist_dev_r	arm_flex_l	arm_add_l	arm_rot_l	elbow_flex_l	pro_sup_l	wrist_flex_l	wrist_dev_l
      4.14000000	      1.43760107	     -1.62557004	      3.50156288	      0.37446763	      0.92007920	     -0.20756987	     -4.17980638	      7.43098155	     -5.68554793	    -13.73355575	     10.67913590	      0.72243945	      2.63033447	     26.26720437	      1.22949605	      4.57108706	    -41.75398776	     -0.39053805	     -9.23472533	     15.24295278	     -7.65967431	      3.72153528	      2.39050075	     -0.80843441	    -21.86358284	     10.51120475	     35.89372777	     86.51662706	      0.00000000	      0.00000000	     -5.85551465	    -13.92619138	     17.49160881	     19.73715182	     85.94366927	      0.00000000	      0.00000000
      4.15000000	      1.61728872	     -1.60238009	      3.19335806	      0.38640082	      0.91870855	     -0.20718915	     -5.44910673	      7.42167447	     -5.69657248	    -13.30748607	     11.21833035	      1.38534552	      2.72999589	     26.31208521	      1.16699941	      4.42054063	    -38.25917720	     -0.26627837	    -10.03058292	     13.51400047	     -7.98545847	      3.67243597	      2.76331490	     -0.27380422	    -22.18418939	     10.62209421	     36.58980642	     86.51662706	      0.00000000	      0.00000000	     -5.88464658	    -13.82550685	     17.38891423	     19.49632802	     85.94366927	      0.00000000	      0.00000000
      4.16000000	      1.78825803	     -1.61024959	      2.89516424	      0.39843056	      0.91718875	     -0.20686316	     -6.67952647	      7.43748049	     -5.65789803	    -12.94317416	     11.73245085	      1.93955145	      2.84793520	     26.28832759	      1.06878746	      4.31965213	    -34.69020878	     -0.08370297	    -10.63836394	     12.09406624	     -8.28743952	      3.65783225	      3.10644126	      0.25369679	    -22.49693753	     10.75963903	     37.23143533	     86.51662706	      0.00000000	      0.00000000	     -5.88883381	    -13.70760380	     17.38622236	     19.17726238	     85.94366927	      0.00000000	      0.00000000
      4.17000000	      1.93623181	     -1.64800315	      2.60476409	      0.41056787	      0.91553943	     -0.20659281	     -7.85401421	      7.47903344	     -5.57233325	    -12.64750322	     12.21819267	      2.37827168	      2.98836387	     26.22111845	      0.93068200	      4.24790024	    -31.10373767	      0.17566218	    -10.96052545	     11.01719365	     -8.54706173	      3.67615475	      3.42288722	      0.76374649	    -22.79870233	     10.91432037	     37.81959533	     86.51662706	      0.00000000	      0.00000000	     -5.87033184	    -13.57562222	     17.48706199	     18.78024795	     85.94366927	      0.00000000	      0.00000000
      4.18000000	      2.04713635	     -1.71544319	      2.32088827	      0.42282678	      0.91375980	     -0.20637277	     -8.95840405	      7.54579986	     -5.45125224	    -12.42711333	     12.67269372	      2.70841186	      3.15977123	     26.13627211	      0.75114075	      4.17519982	    -27.56434229	      0.50953866	    -10.91255365	     10.29507893	     -8.74713709	      3.72698862	      3.71418482	      1.24608603	    -23.08710818	     11.07496570	     38.35603203	     86.51662706	      0.00000000	      0.00000000	     -5.83131284	    -13.43146427	     17.69364272	     18.30663675	     85.94366927	      0.00000000	      0.00000000
      4.19000000	      2.11057220	     -1.81236517	      2.04388848	      0.43521261	      0.91183984	     -0.20620140	     -9.98140156	      7.63427903	     -5.31094351	    -12.28944529	     13.09199783	      2.94936684	      3.37552039	     26.06006654	      0.53351940	      4.06463482	    -24.14402814	      0.89874143	    -10.43779107	      9.91734958	     -8.87466264	      3.81048650	      3.98058391	      1.69124235	    -23.36069643	     11.22936849	     38.84331603	     86.51662706	      0.00000000	      0.00000000	     -5.77345900	    -13.27589162	     18.00608333	     17.75960333	     85.94366927	      0.00000000	      0.00000000
      4.20000000	      2.12225212	     -1.93691141	      1.77597782	      0.44771964	      0.90978060	     -0.20609526	    -10.91417102	      7.73730970	     -5.16889837	    -12.24351480	     13.46968313	      3.13018330	      3.65416130	     26.01743442	      0.28798009	      3.87877878	    -20.92148856	      1.31530968	     -9.51968809	      9.85351809	     -8.92366445	      3.92566866	      4.22170133	      2.09088305	    -23.61859461	     11.36509186	     39.28483500	     86.51662706	      0.00000000	      0.00000000	     -5.69741822	    -13.10917843	     18.42156526	     17.14494561	     85.94366927	      0.00000000	      0.00000000
      4.21000000	      2.08435519	     -2.08408093	      1.52053380	      0.46034557	      0.90760947	     -0.20608725	    -11.75059937	      7.84406379	     -5.04069965	    -12.29983551	     13.79613534	      3.28559279	      4.01942741	     26.02860944	      0.03175611	      3.58899725	    -17.98074691	      1.73175785	     -8.18925010	     10.05634658	     -8.89706845	      4.06802625	      4.43755624	      2.43765508	    -23.85981797	     11.47039435	     39.68463522	     86.51662706	      0.00000000	      0.00000000	     -5.60263013	    -12.93200711	     18.93364194	     16.47166254	     85.94366927	      0.00000000	      0.00000000
      4.22000000	      2.00461131	     -2.24464087	      1.28027618	      0.47309573	      0.90537734	     -0.20621048	    -12.48875704	      7.94017814	     -4.93784944	    -12.46926576	     14.05876188	      3.45149431	      4.49986110	     26.10591626	     -0.21302367	      3.18557006	    -15.40820654	      2.12793407	     -6.52604816	     10.46622304	     -8.80656761	      4.22730820	      4.62975857	      2.72457334	    -24.08250822	     11.53516474	     40.04704350	     86.51662706	      0.00000000	      0.00000000	     -5.48807348	    -12.74620919	     19.53194380	     15.75209171	     85.94366927	      0.00000000	      0.00000000
      4.23000000	      1.89522988	     -2.40481267	      1.05486666	      0.48596935	      0.90314439	     -0.20647333	    -13.13297275	      8.00797432	     -4.86671862	    -12.76092757	     14.24323728	      3.66038519	      5.12801163	     26.25222148	     -0.42320543	      2.68507849	    -13.28705943	      2.49282264	     -4.65204044	     11.01609949	     -8.66992126	      4.38662711	      4.80233801	      2.94422510	    -24.28344105	     11.55172772	     40.37604826	     86.51662706	      0.00000000	      0.00000000	     -5.35399388	    -12.55499138	     20.20241870	     15.00150523	     85.94366927	      0.00000000	      0.00000000
      4.24000000	      1.77148763	     -2.54724964	      0.83935068	      0.49896133	      0.90097646	     -0.20684024	    -13.69487404	      8.02712800	     -4.82863184	    -13.17980417	     14.33554835	      3.93715332	      5.93914843	     26.46076027	     -0.57847674	      2.13148061	    -11.68863918	      2.82040366	     -2.71853759	     11.63656846	     -8.50600500	      4.52393406	      4.96155949	      3.08819469	    -24.45801161	     11.51539143	     40.67447912	     86.51662706	      0.00000000	      0.00000000	     -5.20399567	    -12.36264938	     20.92808719	     14.23720307	     85.94366927	      0.00000000	      0.00000000
      4.25000000	      1.64910082	     -2.65338628	      0.62495646	      0.51208484	      0.89894877	     -0.20724489	    -14.19157619	      7.97643672	     -4.82088604	    -13.72485759	     14.32421422	      4.29561204	      6.96942413	     26.71503067	     -0.66367164	      1.58910204	    -10.66130509	      3.10098940	     -0.88786372	     12.26073903	     -8.32888790	      4.61595539	      5.11437724	      3.14714355	    -24.60069739	     11.42465179	     40.94307828	     86.51662706	      0.00000000	      0.00000000	     -5.04657562	    -12.17423892	     21.69016743	     13.47726001	     85.94366927	      0.00000000	      0.00000000
      4.26000000	      1.54031909	     -2.70671227	      0.40255543	      0.52538815	      0.89712380	     -0.20764236	    -14.64073104	      7.83708771	     -4.83841365	    -14.38842873	     14.20179283	      4.73616290	      8.25343321	     26.98883089	     -0.66882898	      1.12881173	    -10.21864158	      3.31153684	      0.68752108	     12.82866491	     -8.14296106	      4.64308117	      5.26582292	      3.11186992	    -24.70582932	     11.28103900	     41.17961118	     86.51662706	      0.00000000	      0.00000000	     -4.89533196	    -11.99556423	     22.46935058	     12.73913374	     85.94366927	      0.00000000	      0.00000000
      4.27000000	      1.44961256	     -2.69593300	      0.16752271	      0.53895598	      0.89551360	     -0.20804593	    -15.05449379	      7.59679416	     -4.87574455	    -15.15759082	     13.96479441	      5.24496068	      9.82116439	     27.24849962	     -0.58741727	      0.81152730	    -10.33026167	      3.40944596	      1.88476851	     13.29112726	     -7.94120226	      4.59290204	      5.41609981	      2.97535250	    -24.76835487	     11.08865529	     41.37821484	     86.51662706	      0.00000000	      0.00000000	     -4.76740349	    -11.83323684	     23.24696344	     12.03835031	     85.94366927	      0.00000000	      0.00000000
      4.28000000	      1.37065485	     -2.61634610	     -0.07629813	      0.55288722	      0.89407051	     -0.20848822	    -15.43549041	      7.25334031	     -4.92876385	    -16.01776155	     13.61145001	      5.79485408	     11.69444289	     27.45956981	     -0.41378181	      0.67442811	    -10.91961563	      3.33379503	      2.62543259	     13.61258021	     -7.70763721	      4.46080745	      5.55833395	      2.73529496	    -24.78422032	     10.85349269	     41.52917994	     86.51662706	      0.00000000	      0.00000000	     -4.68021859	    -11.69426981	     24.00579322	     11.38746852	     85.94366927	      0.00000000	      0.00000000
      4.29000000	      1.28749143	     -2.46883718	     -0.31596229	      0.56723317	      0.89270258	     -0.20897151	    -15.77658603	      6.81543367	     -4.99565895	    -16.95782929	     13.13743844	      6.34815618	     13.88309052	     27.59808602	     -0.14103237	      0.72422931	    -11.87241396	      3.01582952	      2.88239092	     13.77305480	     -7.42328941	      4.24756506	      5.67790363	      2.39628480	    -24.75019418	     10.58264810	     41.61930780	     86.51662706	      0.00000000	      0.00000000	     -4.64742035	    -11.58510710	     24.73049520	     10.79547017	     85.94366927	      0.00000000	      0.00000000
      4.30000000	      1.18215791	     -2.25737848	     -0.53241435	      0.58195111	      0.89130088	     -0.20948220	    -16.06365071	      6.29887162	     -5.07669570	    -17.97500573	     12.53047251	      6.86098337	     16.38116823	     27.66340930	      0.23906189	      0.93926441	    -13.05614848	      2.39732804	      2.67790387	     13.76882287	     -7.07338111	      3.95521713	      5.75391361	      1.97061989	    -24.66332184	     10.28358233	     41.63291271	     86.51662706	      0.00000000	      0.00000000	     -4.67530310	    -11.51055193	     25.40764427	     10.26764464	     85.94366927	      0.00000000	      0.00000000
